<?xml version="1.0" standalone="no"?>
<!DOCTYPE svg PUBLIC "-//W3C//DTD SVG 20010904//EN"
 "http://www.w3.org/TR/2001/REC-SVG-20010904/DTD/svg10.dtd">
<svg version="1.0" xmlns="http://www.w3.org/2000/svg" width="107.000000pt" height="107.000000pt" viewBox="0 0 107.000000 107.000000" preserveAspectRatio="xMidYMid meet">
    <path d="m 22.555204,20.472404 q -0.1778,1.0922 -0.6096,1.1938 -0.6096,0.1524 -2.3368,-0.3302 -1.8288,-0.508 -2.0828,-1.016 -0.0762,-0.1778 -0.0762,-0.381 0,-0.1524 0.0508,-0.4826 0.0762,-0.3556 0.0762,-0.5842 V 7.3406046 q -1.1938,2.3368 -3.1242,10.5155994 -0.0254,0.1016 -0.0254,0.2286 0,0.254 0.0762,0.8128 0.1016,0.5588 0.1016,0.7112 -0.0254,0.7874 -0.0762,1.016 -0.127,0.508 -0.5334,0.6096 -0.254,0.0762 -0.889,0.0762 -3.3019999,0 -4.5465999,-1.143 -0.2032,-0.1778 -0.1524,-0.635 0.0508,-0.5588 0,-0.7366 -0.9398,-2.8956 -1.6764,-5.08 -1.778,-5.2831994 -2.3114,-6.2229994 V 17.602204 q 0,0.3302 0.2032,0.9144 0.254,0.7112 0.2794,0.889 0.1016,0.508 0.0508,1.2192 -0.0508,0.8636 -0.3556,1.0668 -0.1524,0.1016 -0.5842,0.1016 -0.9398,0 -2.2352,-0.3302 -1.39700408,-0.3302 -1.65100408,-0.6858 Q 2.5217119e-8,20.599404 2.5217119e-8,20.345404 q 0,-0.1524 0.07619999478288,-0.508 0.1016,-0.3556 0.1016,-0.5588 V 1.2700046 q 0,-0.30480005 0.254,-0.68580005 0.254,-0.4064 0.58420008,-0.5334 0.431804,-0.1778 3.327404,0.6096 3.0226,0.78740005 3.2004,1.37160005 0.0762,0.2286 0.0254,0.6096 -0.0762,0.5334 -0.0762,0.635 0,0.2286 0.0762,0.4064 l 3.4289999,9.2201994 q 0.7112,-2.2606 2.5908,-9.1693994 0.9398,-3.53060005 1.524,-3.68300005 0.1778,-0.050800002198 0.4064,-0.050800002198 0.4318,0 1.4478,0.2286000021978 1.1176,0.2794 1.5494,0.3048 2.0066,0.1778 2.3114,0.2286 1.1938,0.2286 1.3462,0.83820005 0.0508,0.1778 0.0508,0.381 0,0.254 -0.127,0.7366 -0.127,0.4572 -0.127,0.6858 V 18.948404 q 0,0.254 0.3048,0.762 0.3302,0.508 0.2794,0.762 z" id="text22" style="font-weight:bold;font-size:25.4px;font-family:'Marker Felt';-inkscape-font-specification:'Marker Felt Bold';fill:#f6339a;stroke-width:0.251;stroke-dashoffset:1.04354" aria-label="M" />
</svg>
