<?xml version="1.0" encoding="UTF-8" standalone="no"?>
<!-- Created with Inkscape (http://www.inkscape.org/) -->

<svg width="100px" height="45px" viewBox="0 0 49.659969 26.014893" version="1.1" id="svg1" xml:space="preserve" xmlns="http://www.w3.org/2000/svg" xmlns:svg="http://www.w3.org/2000/svg">
    <defs id="defs1" />
    <g id="g28" transform="matrix(0.68266881,0,0,0.68266881,-84.117716,-109.67999)" style="display:inline">
    <path style="fill:#ff0000;fill-opacity:1;stroke:#ffffff;stroke-width:0.973581;stroke-linecap:butt;stroke-dasharray:23.3659, 0.973581;stroke-dashoffset:1.07095;paint-order:normal" d="m 180.87687,183.33258 -5.64835,-5.64835" id="path16" />
        <path style="opacity:1;fill:#ff0000;fill-opacity:1;stroke:#ffffff;stroke-width:0.973581;stroke-linecap:butt;stroke-dasharray:23.3659, 0.973581;stroke-dashoffset:1.07095;paint-order:normal" d="m 157.71285,183.08011 5.64835,-5.64835" id="path21" />
        <path style="fill:#ffffff;fill-opacity:1;stroke:#ffffff;stroke-width:0.973581;stroke-linecap:butt;stroke-dasharray:23.3659, 0.973581;stroke-dashoffset:1.07095;paint-order:normal" d="m 144.64864,182.32353 -5.64835,-5.64835" id="path22" />
        <circle style="opacity:1;fill:#f6339a;fill-opacity:1;stroke:none;stroke-width:0.499999;stroke-dasharray:none;paint-order:normal" id="circle22" cx="133.21892" cy="170.85548" r="10" />
        <circle style="fill:#f6339a;fill-opacity:1;stroke:none;stroke-width:0.499999;stroke-dasharray:none;paint-order:normal" id="circle23" cx="169.53905" cy="170.66354" r="10" />
        <circle style="fill:#ffffff;stroke:none;stroke-width:0.499999;stroke-dasharray:none;paint-order:normal" id="circle24" cx="151.48882" cy="188.65137" r="10" />
        <path style="font-size:16.028px;font-family:'Marker Felt';-inkscape-font-specification:'Marker Felt';fill:#000000;stroke-width:0.315513" d="m 137.73333,175.01516 q 0.0481,0.17631 0.0481,0.36865 0,0.67317 -0.52892,1.25018 -0.52893,0.57701 -1.13799,0.57701 -0.19234,0 -0.36865,-0.0641 -0.577,-0.20837 -0.76934,-0.92963 -0.20836,-0.83345 -0.5129,-1.07387 l -2.88504,-2.24392 0.19234,1.92336 q 0.016,0.22439 0.16028,0.62509 0.14425,0.38467 0.14425,0.57701 0,0.33658 -0.32056,0.62509 -0.30453,0.2885 -0.75331,0.2885 -0.49687,0 -1.05785,-0.36864 -0.60907,-0.41673 -0.60907,-0.88154 0,-0.17631 0.17631,-0.38467 0.17631,-0.20837 0.17631,-0.38468 l -0.41673,-9.45652 q -0.016,-0.20836 -0.17631,-0.49686 -0.14425,-0.28851 -0.14425,-0.43276 0,-0.30453 0.41673,-0.67318 0.0962,-0.0801 0.5129,-0.0801 1.42649,0 1.79513,0.65715 0.0962,0.17631 0.0962,0.33659 0,0.16028 -0.14425,0.44878 -0.14425,0.27248 -0.14425,0.46482 v 3.91083 l 2.6927,-4.77635 q 0.16028,-0.41672 0.30453,-0.83345 0.20837,-0.43276 0.73729,-0.43276 0.5129,0 1.04182,0.36865 0.59304,0.41672 0.5129,0.89756 -0.0641,0.35262 -0.30454,0.48084 -0.30453,0.17631 -0.36864,0.28851 l -3.23766,5.64185 3.7185,2.82093 q 0.33659,0.20837 0.6892,0.43276 0.36865,0.22439 0.46482,0.52892 z" id="path24" aria-label="K" />
        <path style="font-weight:bold;font-size:16.028px;font-family:'Marker Felt';-inkscape-font-specification:'Marker Felt Bold';fill:#000000;stroke-width:0.315513" d="m 153.12864,182.32981 q 0,0.11219 -0.0801,0.30453 -0.0641,0.19233 -0.0801,0.24042 -0.0962,0.32056 -0.19234,0.99373 v 9.8412 q 0,0.19233 0.0962,0.35261 0.0962,0.14425 0.0962,0.24042 0,1.02579 -0.38467,1.10593 -0.14426,0.0321 -1.12196,-0.20836 -1.0258,-0.25645 -1.18608,-0.4007 -0.35261,-0.30453 -0.35261,-0.56098 0,-0.0641 0.0641,-0.14425 0.0641,-0.0801 0.0641,-0.27248 v -11.29974 q 0,-0.0962 -0.0641,-0.19233 -0.0481,-0.1122 -0.0481,-0.20837 0.0321,-0.38467 0.59303,-0.51289 0.17631,-0.0321 0.73729,0 0.6892,0.0481 1.15402,0.1763 0.70523,0.19234 0.70523,0.54496 z" id="path25" aria-label="I" />
        <path style="font-weight:bold;font-size:16.028px;font-family:'Marker Felt';-inkscape-font-specification:'Marker Felt Bold';fill:#000000;stroke-width:0.315513" d="m 173.53014,174.31815 q 0,1.18607 -0.78537,1.95541 -0.78537,0.75332 -2.17981,0.78538 -0.35261,0 -0.75331,-0.1122 -0.73729,-0.20836 -0.76935,-0.20836 -0.38467,-0.0801 -0.78537,-0.17631 -0.38467,-0.0801 -0.67318,-0.35262 -0.43275,-0.38467 -0.70523,-1.25018 -0.33659,-1.00977 -0.51289,-1.26621 -0.12823,-0.12823 -0.30454,-0.44879 -0.0481,-0.24042 0.0801,-0.46481 0.14426,-0.24042 0.33659,-0.30453 0.0962,-0.0321 0.35262,-0.0321 0.56098,0 1.36238,0.14425 0.81743,0.12823 0.91359,0.24042 0.0962,0.1122 0.25645,1.15402 0.14425,0.96168 0.43276,1.07388 0.0641,0.032 0.14425,0.032 0.30453,0 0.5129,-0.49687 0.22439,-0.51289 0.22439,-1.15401 0,-1.39444 -0.86551,-1.85925 -1.98748,-1.07388 -2.78888,-1.98747 -0.92962,-1.05785 -0.83345,-2.50037 0.0801,-1.2021 0.86551,-2.42023 0.8014,-1.23415 1.68294,-1.44252 0.36864,-0.0801 2.24392,0.70523 0.46481,0.17631 0.92962,0.36865 0.48084,0.19233 0.76935,0.56098 0.44878,0.56098 0.44878,1.93939 0,0.25644 -0.016,0.75331 -0.016,0.43276 -0.016,0.60907 0.016,0.11219 0.11219,0.36864 0.0801,0.17631 0.0641,0.35262 -0.032,0.70523 -0.59303,0.78537 -0.32056,0.0481 -1.18607,-0.24042 -0.96168,-0.30453 -1.21813,-0.65715 -0.0321,-0.0481 -0.0321,-0.32056 0,-0.24042 0.0481,-1.0899 0.0641,-0.84949 0.0641,-1.23416 0,-0.6892 -0.16028,-0.67318 -0.49687,0.0321 -0.83346,0.72126 -0.32056,0.67318 -0.32056,1.53869 0,1.44252 0.84949,2.05159 0.96168,0.60906 1.92336,1.21812 0.91359,0.59304 1.26621,1.18608 0.44878,0.76934 0.44878,2.14775 z" id="path26" aria-label="S" />
        <circle style="fill:#ffffff;stroke:none;stroke-width:0.499999;stroke-dasharray:none;paint-order:normal" id="circle28" cx="185.9628" cy="188.77118" r="10" />
        <path style="font-weight:bold;font-size:16.028px;font-family:'Marker Felt';-inkscape-font-specification:'Marker Felt Bold';fill:#000000;stroke-width:0.315513" d="m 189.80855,192.76492 q 0,1.18608 -0.78537,1.95542 -0.78537,0.75332 -2.17981,0.78537 -0.35261,0 -0.75331,-0.11219 -0.73729,-0.20837 -0.76935,-0.20837 -0.38467,-0.0801 -0.78537,-0.17631 -0.38467,-0.0801 -0.67317,-0.35261 -0.43276,-0.38467 -0.70524,-1.25019 -0.33658,-1.00976 -0.51289,-1.26621 -0.12823,-0.12822 -0.30453,-0.44878 -0.0481,-0.24042 0.0801,-0.46481 0.14425,-0.24042 0.33658,-0.30454 0.0962,-0.032 0.35262,-0.032 0.56098,0 1.36238,0.14425 0.81743,0.12822 0.9136,0.24042 0.0962,0.1122 0.25644,1.15402 0.14426,0.96168 0.43276,1.07387 0.0641,0.0321 0.14425,0.0321 0.30453,0 0.5129,-0.49687 0.22439,-0.5129 0.22439,-1.15402 0,-1.39443 -0.86551,-1.85924 -1.98747,-1.07388 -2.78887,-1.98748 -0.92963,-1.05784 -0.83346,-2.50036 0.0801,-1.2021 0.86551,-2.42023 0.8014,-1.23416 1.68294,-1.44252 0.36865,-0.0801 2.24392,0.70523 0.46481,0.17631 0.92963,0.36864 0.48084,0.19234 0.76934,0.56098 0.44878,0.56098 0.44878,1.93939 0,0.25645 -0.016,0.75332 -0.016,0.43275 -0.016,0.60906 0.016,0.1122 0.11219,0.36865 0.0801,0.1763 0.0641,0.35261 -0.0321,0.70523 -0.59304,0.78537 -0.32056,0.0481 -1.18607,-0.24042 -0.96168,-0.30453 -1.21813,-0.65714 -0.0321,-0.0481 -0.0321,-0.32056 0,-0.24042 0.0481,-1.08991 0.0641,-0.84948 0.0641,-1.23415 0,-0.68921 -0.16028,-0.67318 -0.49687,0.0321 -0.83346,0.72126 -0.32056,0.67318 -0.32056,1.53869 0,1.44252 0.84949,2.05158 0.96168,0.60907 1.92336,1.21813 0.91359,0.59304 1.26621,1.18607 0.44878,0.76935 0.44878,2.14775 z" id="path28" aria-label="S" />
    </g>
</svg>
